# xmcd
#
# Track frame offsets:
#	150
#	21679
#	37600
#	58386
#	76121
#	107732
#	123752
#	145565
#	162390
#	181646
#	200584
#	219201
#	234417
#	259055
#	276431
#
# Disc length: 3905 seconds
#
# Revision: 0
# Processed by: cddbd v1.5.2PL0 Copyright (c) Steve Scherf et al.
# Submitted via: dBpowerAMP V4.0
#
DISCID=c90f3f0f
DTITLE=Mike Zito - Today
DYEAR=2008
DGENRE=Blues
TTITLE0=Love Like This
TTITLE1=Superman
TTITLE2=Holding Out for Love
TTITLE3=Little Red Corvette
TTITLE4=Universe
TTITLE5=Blinded
TTITLE6=Slow It Down
TTITLE7=Today
TTITLE8=No Big City
TTITLE9=Deep Down In Love
TTITLE10=Dirty Things
TTITLE11=Hollywood
TTITLE12=Time To Go Home
TTITLE13=Holding Out for Love - Acoustic
TTITLE14=Today - Acoustic
EXTD=
EXTT0=
EXTT1=
EXTT2=
EXTT3=
EXTT4=
EXTT5=
EXTT6=
EXTT7=
EXTT8=
EXTT9=
EXTT10=
EXTT11=
EXTT12=
EXTT13=
EXTT14=
PLAYORDER=
